<svg xmlns="http://www.w3.org/2000/svg" xmlns:xlink="http://www.w3.org/1999/xlink" width="2000" zoomAndPan="magnify" viewBox="0 0 1500 1499.999933" height="2000" preserveAspectRatio="xMidYMid meet" version="1.0"><defs><clipPath id="359c433bd8"><rect x="0" width="614" y="0" height="778"/></clipPath></defs><g transform="matrix(1, 0, 0, 1, 457, 361)"><g clip-path="url(#359c433bd8)"><path stroke-linecap="butt" transform="matrix(2.974716, 0, 0, 2.974716, 300.827273, 342.891794)" fill="none" stroke-linejoin="miter" d="M 0.000286456 15.500037 L 88.668156 15.500037 " stroke="#0a0a0a" stroke-width="31" stroke-opacity="1" stroke-miterlimit="4"/><path stroke-linecap="butt" transform="matrix(2.974716, 0, 0, 2.974716, 47.927998, 1.005935)" fill="none" stroke-linejoin="miter" d="M 0.000568001 15.499748 L 173.684436 15.499748 " stroke="#0a0a0a" stroke-width="31" stroke-opacity="1" stroke-miterlimit="4"/><path stroke-linecap="butt" transform="matrix(2.974716, 0, 0, 2.974716, 193.979294, 172.064661)" fill="none" stroke-linejoin="miter" d="M 0.000394885 15.499703 L 124.586874 15.499703 " stroke="#0a0a0a" stroke-width="31" stroke-opacity="1" stroke-miterlimit="4"/><path stroke-linecap="butt" transform="matrix(2.974716, 0, 0, 2.974716, 193.979294, 513.969825)" fill="none" stroke-linejoin="miter" d="M 0.000394885 15.500069 L 124.586874 15.500069 " stroke="#0a0a0a" stroke-width="31" stroke-opacity="1" stroke-miterlimit="4"/><path stroke-linecap="butt" transform="matrix(2.974716, 0, 0, 2.974716, 47.927998, 684.777738)" fill="none" stroke-linejoin="miter" d="M 0.000568001 15.500297 L 173.684436 15.500297 " stroke="#0a0a0a" stroke-width="31" stroke-opacity="1" stroke-miterlimit="4"/></g></g></svg>