<svg xmlns="http://www.w3.org/2000/svg" xmlns:xlink="http://www.w3.org/1999/xlink" width="1194" zoomAndPan="magnify" viewBox="145 636 1194 231" height="231" preserveAspectRatio="xMidYMid meet" version="1.0"><defs><g/><clipPath id="dbb32f2d23"><path d="M 1 0.398438 L 159 0.398438 L 159 25 L 1 25 Z M 1 0.398438 " clip-rule="nonzero"/></clipPath><clipPath id="b9c67c9a35"><rect x="0" width="160" y="0" height="202"/></clipPath></defs><g transform="matrix(1, 0, 0, 1, 140, 644)"><g clip-path="url(#b9c67c9a35)"><path stroke-linecap="butt" transform="matrix(0.76813, 0, 0, 0.76813, 78.303979, 88.843901)" fill="none" stroke-linejoin="miter" d="M 0.00092296 15.500108 L 88.669989 15.500108 " stroke="#0a0a0a" stroke-width="31" stroke-opacity="1" stroke-miterlimit="4"/><g clip-path="url(#dbb32f2d23)"><path stroke-linecap="butt" transform="matrix(0.76813, 0, 0, 0.76813, 13.000416, 0.562229)" fill="none" stroke-linejoin="miter" d="M -0.000541173 15.500657 L 173.686272 15.500657 " stroke="#0a0a0a" stroke-width="31" stroke-opacity="1" stroke-miterlimit="4"/></g><path stroke-linecap="butt" transform="matrix(0.76813, 0, 0, 0.76813, 50.713737, 44.732949)" fill="none" stroke-linejoin="miter" d="M 0.00144094 15.502162 L 124.5887 15.502162 " stroke="#0a0a0a" stroke-width="31" stroke-opacity="1" stroke-miterlimit="4"/><path stroke-linecap="butt" transform="matrix(0.76813, 0, 0, 0.76813, 50.713737, 133.0196)" fill="none" stroke-linejoin="miter" d="M 0.00144094 15.500215 L 124.5887 15.500215 " stroke="#0a0a0a" stroke-width="31" stroke-opacity="1" stroke-miterlimit="4"/><path stroke-linecap="butt" transform="matrix(0.76813, 0, 0, 0.76813, 13.000416, 177.125515)" fill="none" stroke-linejoin="miter" d="M -0.000541173 15.499634 L 173.686272 15.499634 " stroke="#0a0a0a" stroke-width="31" stroke-opacity="1" stroke-miterlimit="4"/></g></g><g fill="#0a0a0a" fill-opacity="1"><g transform="translate(304.25658, 814.87491)"><g><path d="M 86.421875 2.171875 C 75.554688 2.171875 65.421875 0.144531 56.015625 -3.90625 C 46.609375 -7.957031 38.359375 -13.566406 31.265625 -20.734375 C 24.171875 -27.898438 18.632812 -36.222656 14.65625 -45.703125 C 10.675781 -55.179688 8.6875 -65.347656 8.6875 -76.203125 C 8.6875 -87.066406 10.675781 -97.203125 14.65625 -106.609375 C 18.632812 -116.015625 24.132812 -124.300781 31.15625 -131.46875 C 38.175781 -138.632812 46.351562 -144.207031 55.6875 -148.1875 C 65.03125 -152.164062 75.128906 -154.15625 85.984375 -154.15625 C 96.835938 -154.15625 106.929688 -152.164062 116.265625 -148.1875 C 125.609375 -144.207031 133.820312 -138.632812 140.90625 -131.46875 C 148 -124.300781 153.535156 -115.976562 157.515625 -106.5 C 161.503906 -97.019531 163.5 -86.851562 163.5 -76 C 163.5 -65.132812 161.503906 -54.960938 157.515625 -45.484375 C 153.535156 -36.003906 148.035156 -27.71875 141.015625 -20.625 C 133.992188 -13.53125 125.816406 -7.957031 116.484375 -3.90625 C 107.148438 0.144531 97.128906 2.171875 86.421875 2.171875 Z M 85.984375 -21.71875 C 96.253906 -21.71875 105.257812 -24.03125 113 -28.65625 C 120.75 -33.289062 126.832031 -39.695312 131.25 -47.875 C 135.664062 -56.050781 137.875 -65.492188 137.875 -76.203125 C 137.875 -86.773438 135.664062 -96.113281 131.25 -104.21875 C 126.832031 -112.320312 120.71875 -118.691406 112.90625 -123.328125 C 105.09375 -127.960938 96.117188 -130.28125 85.984375 -130.28125 C 75.847656 -130.28125 66.90625 -128 59.15625 -123.4375 C 51.414062 -118.875 45.335938 -112.539062 40.921875 -104.4375 C 36.515625 -96.332031 34.3125 -86.921875 34.3125 -76.203125 C 34.3125 -65.492188 36.515625 -56.050781 40.921875 -47.875 C 45.335938 -39.695312 51.414062 -33.289062 59.15625 -28.65625 C 66.90625 -24.03125 75.847656 -21.71875 85.984375 -21.71875 Z M 85.984375 -21.71875 "/></g></g></g><g fill="#0a0a0a" fill-opacity="1"><g transform="translate(476.870648, 814.87491)"><g><path d="M 13.25 43.421875 L 13.25 -104.21875 L 37.125 -104.21875 L 37.125 -92.71875 C 40.894531 -96.914062 45.492188 -100.242188 50.921875 -102.703125 C 56.347656 -105.160156 62.390625 -106.390625 69.046875 -106.390625 C 78.453125 -106.390625 86.953125 -103.960938 94.546875 -99.109375 C 102.148438 -94.265625 108.160156 -87.753906 112.578125 -79.578125 C 116.992188 -71.398438 119.203125 -62.171875 119.203125 -51.890625 C 119.203125 -41.753906 116.992188 -32.597656 112.578125 -24.421875 C 108.160156 -16.242188 102.148438 -9.765625 94.546875 -4.984375 C 86.953125 -0.210938 78.453125 2.171875 69.046875 2.171875 C 62.390625 2.171875 56.347656 0.976562 50.921875 -1.40625 C 45.492188 -3.800781 40.894531 -7.097656 37.125 -11.296875 L 37.125 43.421875 Z M 65.140625 -20.40625 C 73.828125 -20.40625 80.921875 -23.375 86.421875 -29.3125 C 91.921875 -35.25 94.671875 -42.847656 94.671875 -52.109375 C 94.671875 -61.515625 91.921875 -69.148438 86.421875 -75.015625 C 80.921875 -80.878906 73.828125 -83.8125 65.140625 -83.8125 C 56.304688 -83.8125 49.175781 -80.878906 43.75 -75.015625 C 38.320312 -69.148438 35.609375 -61.515625 35.609375 -52.109375 C 35.609375 -42.847656 38.320312 -35.25 43.75 -29.3125 C 49.175781 -23.375 56.304688 -20.40625 65.140625 -20.40625 Z M 65.140625 -20.40625 "/></g></g></g><g fill="#0a0a0a" fill-opacity="1"><g transform="translate(603.020037, 814.87491)"><g><path d="M 61.65625 2.171875 C 51.238281 2.171875 41.867188 -0.175781 33.546875 -4.875 C 25.222656 -9.582031 18.632812 -16.0625 13.78125 -24.3125 C 8.9375 -32.5625 6.515625 -41.828125 6.515625 -52.109375 C 6.515625 -62.390625 8.898438 -71.617188 13.671875 -79.796875 C 18.453125 -87.972656 24.929688 -94.445312 33.109375 -99.21875 C 41.285156 -104 50.367188 -106.390625 60.359375 -106.390625 C 70.054688 -106.390625 78.628906 -104.144531 86.078125 -99.65625 C 93.535156 -95.164062 99.398438 -89.015625 103.671875 -81.203125 C 107.941406 -73.390625 110.078125 -64.488281 110.078125 -54.5 C 110.078125 -51.3125 109.644531 -47.546875 108.78125 -43.203125 L 31.046875 -43.203125 C 32.785156 -36.109375 36.332031 -30.5 41.6875 -26.375 C 47.039062 -22.25 53.628906 -20.1875 61.453125 -20.1875 C 66.804688 -20.1875 71.757812 -21.128906 76.3125 -23.015625 C 80.875 -24.898438 84.75 -27.648438 87.9375 -31.265625 L 103.140625 -15.84375 C 98.066406 -9.914062 91.910156 -5.429688 84.671875 -2.390625 C 77.441406 0.648438 69.769531 2.171875 61.65625 2.171875 Z M 59.921875 -84.46875 C 52.546875 -84.46875 46.320312 -82.546875 41.25 -78.703125 C 36.1875 -74.867188 32.785156 -69.550781 31.046875 -62.75 L 86.640625 -62.75 C 83.597656 -77.226562 74.691406 -84.46875 59.921875 -84.46875 Z M 59.921875 -84.46875 "/></g></g></g><g fill="#0a0a0a" fill-opacity="1"><g transform="translate(719.181724, 814.87491)"><g><path d="M 13.25 0 L 13.25 -104.21875 L 37.125 -104.21875 L 37.125 -93.359375 C 40.019531 -97.410156 43.75 -100.59375 48.3125 -102.90625 C 52.875 -105.226562 58.191406 -106.390625 64.265625 -106.390625 C 74.546875 -106.390625 83.160156 -102.410156 90.109375 -94.453125 L 74.46875 -78.375 C 70.707031 -82.144531 65.929688 -84.03125 60.140625 -84.03125 C 53.484375 -84.03125 47.984375 -81.929688 43.640625 -77.734375 C 39.296875 -73.535156 37.125 -66.945312 37.125 -57.96875 L 37.125 0 Z M 13.25 0 "/></g></g></g><g fill="#0a0a0a" fill-opacity="1"><g transform="translate(811.676757, 814.87491)"><g><path d="M 56.890625 2.171875 C 47.484375 2.171875 38.976562 -0.210938 31.375 -4.984375 C 23.769531 -9.765625 17.757812 -16.242188 13.34375 -24.421875 C 8.9375 -32.597656 6.734375 -41.753906 6.734375 -51.890625 C 6.734375 -62.171875 8.9375 -71.398438 13.34375 -79.578125 C 17.757812 -87.753906 23.769531 -94.265625 31.375 -99.109375 C 38.976562 -103.960938 47.484375 -106.390625 56.890625 -106.390625 C 63.546875 -106.390625 69.585938 -105.160156 75.015625 -102.703125 C 80.441406 -100.242188 85.035156 -96.914062 88.796875 -92.71875 L 88.796875 -104.21875 L 112.6875 -104.21875 L 112.6875 0 L 88.796875 0 L 88.796875 -11.296875 C 85.035156 -7.097656 80.441406 -3.800781 75.015625 -1.40625 C 69.585938 0.976562 63.546875 2.171875 56.890625 2.171875 Z M 60.796875 -20.40625 C 69.628906 -20.40625 76.757812 -23.375 82.1875 -29.3125 C 87.613281 -35.25 90.328125 -42.847656 90.328125 -52.109375 C 90.328125 -61.515625 87.613281 -69.148438 82.1875 -75.015625 C 76.757812 -80.878906 69.628906 -83.8125 60.796875 -83.8125 C 52.109375 -83.8125 45.015625 -80.878906 39.515625 -75.015625 C 34.015625 -69.148438 31.265625 -61.515625 31.265625 -52.109375 C 31.265625 -42.847656 34.015625 -35.25 39.515625 -29.3125 C 45.015625 -23.375 52.109375 -20.40625 60.796875 -20.40625 Z M 60.796875 -20.40625 "/></g></g></g><g fill="#0a0a0a" fill-opacity="1"><g transform="translate(937.826161, 814.87491)"><g><path d="M 29.09375 0 L 29.09375 -82.5 L 4.125 -82.5 L 4.125 -104.21875 L 29.09375 -104.21875 L 29.09375 -147.640625 L 52.984375 -147.640625 L 52.984375 -104.21875 L 77.953125 -104.21875 L 77.953125 -82.5 L 52.984375 -82.5 L 52.984375 0 Z M 29.09375 0 "/></g></g></g><g fill="#0a0a0a" fill-opacity="1"><g transform="translate(1020.116361, 814.87491)"><g><path d="M 61.65625 2.171875 C 51.238281 2.171875 41.867188 -0.175781 33.546875 -4.875 C 25.222656 -9.582031 18.632812 -16.0625 13.78125 -24.3125 C 8.9375 -32.5625 6.515625 -41.828125 6.515625 -52.109375 C 6.515625 -62.390625 8.898438 -71.617188 13.671875 -79.796875 C 18.453125 -87.972656 24.929688 -94.445312 33.109375 -99.21875 C 41.285156 -104 50.367188 -106.390625 60.359375 -106.390625 C 70.054688 -106.390625 78.628906 -104.144531 86.078125 -99.65625 C 93.535156 -95.164062 99.398438 -89.015625 103.671875 -81.203125 C 107.941406 -73.390625 110.078125 -64.488281 110.078125 -54.5 C 110.078125 -51.3125 109.644531 -47.546875 108.78125 -43.203125 L 31.046875 -43.203125 C 32.785156 -36.109375 36.332031 -30.5 41.6875 -26.375 C 47.039062 -22.25 53.628906 -20.1875 61.453125 -20.1875 C 66.804688 -20.1875 71.757812 -21.128906 76.3125 -23.015625 C 80.875 -24.898438 84.75 -27.648438 87.9375 -31.265625 L 103.140625 -15.84375 C 98.066406 -9.914062 91.910156 -5.429688 84.671875 -2.390625 C 77.441406 0.648438 69.769531 2.171875 61.65625 2.171875 Z M 59.921875 -84.46875 C 52.546875 -84.46875 46.320312 -82.546875 41.25 -78.703125 C 36.1875 -74.867188 32.785156 -69.550781 31.046875 -62.75 L 86.640625 -62.75 C 83.597656 -77.226562 74.691406 -84.46875 59.921875 -84.46875 Z M 59.921875 -84.46875 "/></g></g></g><g fill="#0a0a0a" fill-opacity="1"><g transform="translate(1136.278048, 814.87491)"><g><path d="M 5.21875 0 L 67.75 -151.984375 L 85.109375 -151.984375 L 147.203125 0 L 120.28125 0 L 108.78125 -29.3125 L 43.421875 -29.3125 L 31.703125 0 Z M 52.109375 -51.03125 L 100.09375 -51.03125 L 76.203125 -111.609375 Z M 52.109375 -51.03125 "/></g></g></g><g fill="#0a0a0a" fill-opacity="1"><g transform="translate(1288.916587, 814.87491)"><g><path d="M 16.5 0 L 16.5 -151.984375 L 41.46875 -151.984375 L 41.46875 0 Z M 16.5 0 "/></g></g></g></svg>